CD_DA
CD_TEXT { LANGUAGE_MAP { 0:EN }
    LANGUAGE 0 {
        TITLE "LP Underground 6.0 (EP)"
        PERFORMER "Linkin Park"
        DISC_ID "3B051C06"
}}

//Track 1
TRACK AUDIO
    CD_TEXT { LANGUAGE 0 {
        TITLE "Announcement Service Public"
        PERFORMER "Linkin Park"
    }}
    AUDIOFILE "01 - Announcement Service Public.wav" 00:00:00

//Track 2
TRACK AUDIO
    CD_TEXT { LANGUAGE 0 {
        TITLE "QWERTY (Studio Demo Version)"
        PERFORMER "Linkin Park"
    }}
    AUDIOFILE "02 - QWERTY (Studio Demo Version).wav" 00:00:00

//Track 3
TRACK AUDIO
    CD_TEXT { LANGUAGE 0 {
        TITLE "QWERTY (Live)"
        PERFORMER "Linkin Park"
    }}
    AUDIOFILE "03 - QWERTY (Live).wav" 00:00:00

//Track 4
TRACK AUDIO
    CD_TEXT { LANGUAGE 0 {
        TITLE "Pushing Me Away (Live)"
        PERFORMER "Linkin Park"
    }}
    AUDIOFILE "04 - Pushing Me Away (Live).wav" 00:00:00

//Track 5
TRACK AUDIO
    CD_TEXT { LANGUAGE 0 {
        TITLE "Breaking the Habit (Piano Version) (Live)"
        PERFORMER "Linkin Park"
    }}
    AUDIOFILE "05 - Breaking the Habit (Piano Version) (Live).wav" 00:00:00 05:20:56

//Track 6
TRACK AUDIO
    CD_TEXT { LANGUAGE 0 {
        TITLE "Reading My Eyes (Live)"
        PERFORMER "Linkin Park"
    }}
    AUDIOFILE "05 - Breaking the Habit (Piano Version) (Live).wav" 05:20:56
    START
    AUDIOFILE "06 - Reading My Eyes (Live).wav" 00:00:00
